<svg width="268" height="100" viewBox="0 0 268 100" fill="none" xmlns="http://www.w3.org/2000/svg">
<circle cx="50" cy="50" r="50" fill="#F25D00"/>
<path d="M31.1151 39.6536V54.8986C31.1151 55.4233 31.5404 55.8486 32.0651 55.8486H47.3101C47.8347 55.8486 48.26 55.4233 48.26 54.8986V39.6536C48.26 39.129 47.8347 38.7036 47.3101 38.7036H32.0651C31.5404 38.7036 31.1151 39.129 31.1151 39.6536Z" fill="white"/>
<path d="M31.1208 61.0783V76.3233C31.1208 76.848 31.5462 77.2733 32.0708 77.2733H47.3158C47.8405 77.2733 48.2659 76.848 48.2659 76.3233V61.0783C48.2659 60.5536 47.8405 60.1283 47.3158 60.1283H32.0708C31.5462 60.1283 31.1208 60.5536 31.1208 61.0783Z" fill="white"/>
<path d="M52.5434 61.0798V76.3248C52.5434 76.8495 52.9687 77.2748 53.4934 77.2748H68.7384C69.2631 77.2748 69.6884 76.8495 69.6884 76.3248V61.0798C69.6884 60.5551 69.2631 60.1298 68.7384 60.1298H53.4934C52.9687 60.1298 52.5434 60.5551 52.5434 61.0798Z" fill="white"/>
<path d="M52.5434 39.6487V54.8937C52.5434 55.4183 52.9687 55.8437 53.4934 55.8437H68.7384C69.2631 55.8437 69.6884 55.4183 69.6884 54.8937V39.6487C69.6884 39.124 69.2631 38.6987 68.7384 38.6987H53.4934C52.9687 38.6987 52.5434 39.124 52.5434 39.6487Z" fill="white"/>
<path d="M47.3101 17.2744H32.065C31.5404 17.2744 31.1151 17.6998 31.1151 18.2244V33.4694C31.1151 33.9941 31.5404 34.4194 32.065 34.4194H47.3101C47.8347 34.4194 48.2601 33.9941 48.2601 33.4694V18.2244C48.2601 17.6998 47.8347 17.2744 47.3101 17.2744Z" fill="white"/>
<path d="M130 24.4185H153.693C162.268 24.4185 166.655 30.6319 166.655 37.459C166.655 43.9005 163.147 48.1967 158.893 49.196C163.687 50.0379 167.535 55.3334 167.535 61.7749C167.535 69.4439 163.013 75.5812 154.439 75.5812H130.005V24.4185H130ZM151.599 44.9705C154.84 44.9705 156.867 42.5916 156.867 39.2948C156.867 35.998 154.84 33.6951 151.599 33.6951H139.583V44.9705H151.599ZM151.939 66.2991C155.586 66.2991 157.746 63.9203 157.746 60.2378C157.746 57.0171 155.719 54.2525 151.939 54.2525H139.588V66.2937H151.939V66.2991Z" fill="black"/>
<path d="M230.093 24.4185H253.786C262.361 24.4185 266.748 30.6319 266.748 37.459C266.748 43.9005 263.24 48.1967 258.986 49.196C263.78 50.0379 267.628 55.3334 267.628 61.7749C267.628 69.4439 263.106 75.5812 254.532 75.5812H230.098V24.4185H230.093ZM251.692 44.9705C254.933 44.9705 256.96 42.5916 256.96 39.2948C256.96 35.998 254.933 33.6951 251.692 33.6951H239.676V44.9705H251.692ZM252.032 66.2991C255.679 66.2991 257.839 63.9203 257.839 60.2378C257.839 57.0171 255.813 54.2525 252.032 54.2525H239.681V66.2937H252.032V66.2991Z" fill="black"/>
<path d="M198.778 24.4185C213.284 24.4185 223.837 35.0949 223.837 49.9998C223.837 64.9048 213.279 75.5812 198.778 75.5812C184.278 75.5812 173.791 64.9048 173.791 49.9998C173.791 35.0949 184.349 24.4185 198.778 24.4185ZM198.778 33.759C189.948 33.759 184.273 40.7276 184.273 49.9946C184.273 59.2615 189.948 66.2302 198.778 66.2302C207.609 66.2302 213.355 59.1879 213.355 49.9946C213.355 40.8013 207.609 33.759 198.778 33.759Z" fill="black"/>
</svg>
