<svg xmlns="http://www.w3.org/2000/svg" fill="none" viewBox="0 0 86 32">
  <path fill="#F25D00" d="M16 32c8.837 0 16-7.163 16-16S24.837 0 16 0 0 7.163 0 16s7.163 16 16 16"/>
  <path fill="#fff" d="M42 8.5h7.575c2.741 0 4.144 1.822 4.144 3.823 0 1.889-1.122 3.148-2.482 3.441 1.533.247 2.763 1.8 2.763 3.688 0 2.249-1.446 4.048-4.187 4.048h-7.812v-15zm6.905 6.025c1.036 0 1.684-.697 1.684-1.664 0-.966-.648-1.641-1.684-1.641h-3.841v3.305zm.109 6.254c1.166 0 1.856-.698 1.856-1.777 0-.945-.647-1.755-1.856-1.755h-3.949v3.53h3.949z"/>
</svg>
