<svg width="118" height="36" viewBox="0 0 118 36" fill="none" xmlns="http://www.w3.org/2000/svg">
<g clip-path="url(#clip0_1425_5073)">
<path fill-rule="evenodd" clip-rule="evenodd" d="M10.9884 7.1441L11.3085 0.316406H7.31027L7.63034 7.14421L1.23551 4.72987L0 8.53238L6.59271 10.3379L2.32052 15.6736L5.55513 18.0236L9.30966 12.3114L13.064 18.0234L16.2986 15.6733L12.0265 10.3377L18.6185 8.53238L17.383 4.72988L10.9884 7.1441Z" fill="#1A1A1A"/>
<path d="M90.0658 9.98925V12.0732H90.351C90.7072 11.3489 91.2233 10.8086 91.9001 10.4523C92.5775 10.0961 93.4858 9.91797 94.6256 9.91797H97.2259V14.1928H94.6079C93.622 14.1928 92.8145 14.359 92.1854 14.6915C91.5562 15.0121 91.081 15.5227 90.7603 16.2233C90.4518 16.924 90.2973 17.8205 90.2973 18.9129V28.6381H85.043V9.98925H90.0658Z" fill="#1A1A1A"/>
<path d="M65.8313 15.3493C65.9615 14.1857 66.3835 13.1703 67.0957 12.3035C67.8202 11.4248 68.8055 10.748 70.0527 10.273C71.3111 9.79804 72.7893 9.56055 74.4874 9.56055C76.2331 9.56055 77.7235 9.82772 78.9586 10.3621C80.1931 10.8964 81.1429 11.7157 81.8081 12.8201C82.4733 13.9125 82.8056 15.2959 82.8056 16.9702V28.6369H77.9611V26.7132H77.6759C77.2837 27.3544 76.6308 27.8888 75.7164 28.3163C74.8025 28.7437 73.5497 28.9575 71.9585 28.9575C70.5335 28.9575 69.2868 28.7319 68.2178 28.2807C67.1489 27.8175 66.3181 27.1585 65.7244 26.3035C65.1423 25.4367 64.8516 24.4155 64.8516 23.2399C64.8516 21.4706 65.4514 20.1051 66.6505 19.1432C67.8617 18.1814 69.4706 17.5817 71.4772 17.3442L77.7828 16.5606V16.2221C77.7828 15.2247 77.5036 14.4944 76.9453 14.0313C76.3876 13.5563 75.5447 13.3188 74.4165 13.3188C73.2883 13.3188 72.4093 13.5385 71.7802 13.9779C71.151 14.4053 70.7949 15.0406 70.7113 15.8837H65.8313V15.3493ZM70.0705 22.9372C70.0705 23.614 70.3374 24.1483 70.8719 24.5402C71.4063 24.932 72.154 25.1279 73.1161 25.1279C74.0305 25.1279 74.838 24.9677 75.5386 24.647C76.2392 24.3264 76.7853 23.8455 77.1774 23.2043C77.5806 22.5631 77.7828 21.7794 77.7828 20.8531V20.0873L72.6708 20.7641C71.8633 20.871 71.228 21.1025 70.765 21.4588C70.302 21.815 70.0705 22.3078 70.0705 22.9372Z" fill="#1A1A1A"/>
<path d="M44.1289 9.98729H49.2409V11.8041H49.5259C50.1671 11.0441 50.9626 10.492 51.9126 10.1476C52.8626 9.7914 53.9491 9.61328 55.1722 9.61328C56.775 9.61328 58.2178 9.97544 59.5005 10.6998C60.7826 11.4122 61.7984 12.4988 62.5461 13.9593C63.2943 15.408 63.6682 17.1951 63.6682 19.3207C63.6682 21.4462 63.2943 23.2392 62.5461 24.6998C61.7984 26.1485 60.7826 27.229 59.5005 27.9415C58.2178 28.654 56.775 29.0102 55.1722 29.0102C53.9847 29.0102 52.9279 28.8499 52.0017 28.5293C51.0755 28.2087 50.2918 27.6921 49.6505 26.9797H49.3834V35.7609H44.1289V9.98729ZM49.1518 19.3207C49.1518 20.52 49.3418 21.5471 49.7218 22.4021C50.1018 23.2452 50.6361 23.8864 51.3248 24.3258C52.0254 24.7532 52.8388 24.9669 53.7651 24.9669C54.6913 24.9669 55.4989 24.7532 56.1874 24.3258C56.888 23.8864 57.4285 23.2452 57.8085 22.4021C58.1884 21.5471 58.3784 20.52 58.3784 19.3207C58.3784 18.1094 58.1884 17.0823 57.8085 16.2392C57.4285 15.3962 56.888 14.7549 56.1874 14.3155C55.4989 13.8762 54.6913 13.6565 53.7651 13.6565C52.8388 13.6565 52.0254 13.8762 51.3248 14.3155C50.6361 14.7549 50.1018 15.3962 49.7218 16.2392C49.3418 17.0823 49.1518 18.1094 49.1518 19.3207Z" fill="#1A1A1A"/>
<path d="M20.8712 9.98806C20.8712 8.50375 21.2512 7.20348 22.0111 6.08726C22.783 4.97107 23.9229 4.10423 25.431 3.48676C26.9509 2.86928 28.7974 2.56055 30.9704 2.56055C33.1672 2.56055 35.0433 2.88116 36.5989 3.52238C38.1545 4.1636 39.3597 5.08388 40.2147 6.28321C41.0696 7.48251 41.5446 8.90745 41.6397 10.558V11.0924H36.5455C36.498 10.0474 36.2308 9.20431 35.744 8.56312C35.269 7.92188 34.6277 7.46468 33.8203 7.19158C33.0247 6.90662 32.0926 6.76412 31.0239 6.76412C30.0145 6.76412 29.1477 6.88286 28.4233 7.12035C27.699 7.35784 27.1409 7.70815 26.7491 8.17122C26.3691 8.62249 26.1791 9.17462 26.1791 9.82772C26.1791 10.4808 26.3513 11.0211 26.6956 11.4486C27.04 11.8761 27.5387 12.2204 28.1918 12.4817C28.8449 12.731 29.6702 12.927 30.6676 13.0694L33.5175 13.4791C35.3818 13.7404 36.9314 14.1738 38.1664 14.7794C39.4132 15.385 40.3572 16.2102 40.9984 17.2552C41.6515 18.3002 41.9781 19.5885 41.9781 21.1204C41.9781 22.7115 41.5803 24.1068 40.7847 25.3061C39.9891 26.4936 38.8076 27.4198 37.2401 28.0847C35.6846 28.7378 33.7847 29.0643 31.5404 29.0643C29.2842 29.0643 27.319 28.7319 25.6447 28.0669C23.9704 27.3901 22.6702 26.4401 21.744 25.2171C20.8297 23.9821 20.3368 22.5393 20.2656 20.8888V20.3544H25.3597C25.4904 21.91 26.096 23.05 27.1765 23.7743C28.269 24.4986 29.6939 24.8608 31.4513 24.8608C32.5557 24.8608 33.4997 24.7302 34.2834 24.469C35.0671 24.1958 35.6608 23.798 36.0646 23.2755C36.4683 22.7531 36.6702 22.1237 36.6702 21.3875C36.6702 20.6751 36.498 20.0932 36.1536 19.642C35.8093 19.1908 35.3046 18.8405 34.6397 18.5911C33.9746 18.3417 33.1078 18.1398 32.0391 17.9855L29.1892 17.5758C27.3843 17.3146 25.8644 16.8693 24.6295 16.2399C23.3945 15.5987 22.4564 14.7615 21.8152 13.7285C21.1859 12.6835 20.8712 11.4367 20.8712 9.98806Z" fill="#1A1A1A"/>
<path d="M111.758 9.98829L104.508 16.8458H104.224V2.98828H98.9688V28.6371H104.224V21.174H104.508L111.633 28.6371H117.832V28.1028L108.641 18.8763L117.778 10.5226V9.98829H111.758Z" fill="#1A1A1A"/>
</g>
<defs>
<clipPath id="clip0_1425_5073">
<rect width="117.969" height="36" fill="white"/>
</clipPath>
</defs>
</svg>
