<svg xmlns="http://www.w3.org/2000/svg" viewBox="20 -1724 11973 1905" width="400" height="64" preserveAspectRatio="xMidYMid meet">
  <g transform="scale(1, -1)" fill="#0E0949">
    <path transform="translate(0, 0)" d="M572 1063 338 1058Q332 857 345.0 730.5Q358 604 371 610Q380 620 389.0 663.0Q398 706 407 759Q416 808 423.5 845.0Q431 882 437 889Q459 905 495.5 905.0Q532 905 564.0 893.5Q596 882 602 865Q609 838 607.5 741.5Q606 645 591.5 537.5Q577 430 546 371Q502 303 408.5 278.5Q315 254 226.5 276.5Q138 299 110 372Q63 524 56.5 755.0Q50 986 66.0 1216.0Q82 1446 101 1593Q113 1653 175.5 1667.0Q238 1681 297.0 1657.0Q356 1633 358 1580L345 1310Q396 1310 463.0 1308.5Q530 1307 581 1300Q597 1296 604.0 1260.5Q611 1225 609.0 1179.5Q607 1134 598.0 1099.5Q589 1065 572 1063Z"/>
    <path transform="translate(661, 0)" d="M562 1433Q651 1409 697.0 1318.5Q743 1228 760.0 1099.0Q777 970 777 831Q778 656 771.5 503.0Q765 350 760 295Q752 246 682.5 231.5Q613 217 539.5 236.5Q466 256 447 308Q446 313 446.5 332.5Q447 352 448.5 374.5Q450 397 451 409Q219 419 134.5 503.5Q50 588 79.0 703.0Q108 818 218.0 920.0Q328 1022 484 1069Q495 1197 434.0 1193.0Q373 1189 300 1081Q272 1060 224.5 1073.5Q177 1087 141.5 1122.0Q106 1157 113 1202Q129 1263 203.5 1323.0Q278 1383 376.0 1417.0Q474 1451 562 1433ZM461 601Q465 668 467 716Q470 764 473 831Q394 784 368.0 731.0Q342 678 365.5 640.5Q389 603 461 601Z"/>
    <path transform="translate(1489, 0)" d="M329 1204Q371 1267 453.5 1295.0Q536 1323 623.5 1303.0Q711 1283 770.5 1201.0Q830 1119 827 964Q820 812 764.5 683.5Q709 555 609.0 473.5Q509 392 371 381Q371 356 372.5 264.0Q374 172 375.5 80.5Q377 -11 377 -36Q375 -87 327.0 -116.5Q279 -146 216.5 -148.5Q154 -151 106.0 -124.0Q58 -97 54 -36Q50 114 50.5 394.5Q51 675 56.0 947.0Q61 1219 71 1344Q80 1394 138.5 1409.5Q197 1425 255.0 1409.5Q313 1394 320 1351ZM532 876Q557 1012 529.5 1053.5Q502 1095 456.5 1063.5Q411 1032 380 949Q354 864 352.0 746.5Q350 629 356 574Q418 601 465.0 689.0Q512 777 532 876Z"/>
    <path transform="translate(2369, 0)" d="M667 1311Q709 1287 717.5 1232.5Q726 1178 709.0 1119.5Q692 1061 657.5 1025.0Q623 989 580 1002Q493 1029 447.5 963.0Q402 897 384.5 788.0Q367 679 365.5 577.0Q364 475 367 432Q367 425 367 421Q364 327 314 303Q270 283 210.0 282.0Q150 281 103.0 306.5Q56 332 51 393Q50 426 55.5 586.5Q61 747 69.0 953.5Q77 1160 85 1333Q94 1382 160.0 1398.0Q226 1414 290.0 1397.0Q354 1380 356 1331Q356 1306 355 1279Q354 1247 355 1218Q410 1281 506.0 1309.5Q602 1338 667 1311Z"/>
    <path transform="translate(3145, 0)" d="M127 1141Q185 1245 307.5 1275.5Q430 1306 551.0 1271.5Q672 1237 726 1144Q775 1045 782.5 901.5Q790 758 756.0 622.0Q722 486 645 410Q581 351 486.0 333.0Q391 315 299.0 341.0Q207 367 152 437Q89 526 69.5 657.0Q50 788 66.0 919.5Q82 1051 127 1141ZM452 580Q497 593 525.0 660.0Q553 727 559.5 813.0Q566 899 546.0 967.0Q526 1035 476 1050Q420 1059 391.5 988.0Q363 917 360.5 818.5Q358 720 381.0 647.0Q404 574 452 580Z"/>
    <path transform="translate(3985, 0)" d="M127 1141Q185 1245 307.5 1275.5Q430 1306 551.0 1271.5Q672 1237 726 1144Q775 1045 782.5 901.5Q790 758 756.0 622.0Q722 486 645 410Q581 351 486.0 333.0Q391 315 299.0 341.0Q207 367 152 437Q89 526 69.5 657.0Q50 788 66.0 919.5Q82 1051 127 1141ZM452 580Q497 593 525.0 660.0Q553 727 559.5 813.0Q566 899 546.0 967.0Q526 1035 476 1050Q420 1059 391.5 988.0Q363 917 360.5 818.5Q358 720 381.0 647.0Q404 574 452 580Z"/>
    <path transform="translate(4825, 0)" d="M572 1063 338 1058Q332 857 345.0 730.5Q358 604 371 610Q380 620 389.0 663.0Q398 706 407 759Q416 808 423.5 845.0Q431 882 437 889Q459 905 495.5 905.0Q532 905 564.0 893.5Q596 882 602 865Q609 838 607.5 741.5Q606 645 591.5 537.5Q577 430 546 371Q502 303 408.5 278.5Q315 254 226.5 276.5Q138 299 110 372Q63 524 56.5 755.0Q50 986 66.0 1216.0Q82 1446 101 1593Q113 1653 175.5 1667.0Q238 1681 297.0 1657.0Q356 1633 358 1580L345 1310Q396 1310 463.0 1308.5Q530 1307 581 1300Q597 1296 604.0 1260.5Q611 1225 609.0 1179.5Q607 1134 598.0 1099.5Q589 1065 572 1063Z"/>
    <path transform="translate(5994, 0)" d="M1150 1349Q1202 1336 1216.5 1310.5Q1231 1285 1226 1235Q1223 1201 1219 1140Q1211 996 1194.0 801.5Q1177 607 1145 471Q1103 327 999.5 278.0Q896 229 789.0 261.0Q682 293 629 390Q569 313 482.0 281.0Q395 249 308.5 268.5Q222 288 164 365Q90 479 70.0 673.5Q50 868 58 1081Q62 1128 108.5 1149.5Q155 1171 214.5 1166.5Q274 1162 316.5 1131.5Q359 1101 356 1044Q346 956 344.5 852.5Q343 749 351 681Q369 574 410.0 569.0Q451 564 464 670Q473 772 475.0 824.0Q477 876 475 928Q474 984 476 1104Q481 1146 518.5 1164.0Q556 1182 604.0 1182.5Q652 1183 690 1174Q742 1161 756.5 1135.5Q771 1110 766 1060Q760 1003 757.0 889.5Q754 776 772 653Q794 547 839.0 541.5Q884 536 898 642Q923 948 926 1280Q931 1322 971.0 1339.5Q1011 1357 1061.5 1357.5Q1112 1358 1150 1349Z"/>
    <path transform="translate(7275, 0)" d="M330 1288Q315 1261 263.5 1250.5Q212 1240 160.0 1249.5Q108 1259 91 1292Q76 1329 68.0 1378.5Q60 1428 56 1474Q54 1491 52 1505Q50 1548 94.0 1571.5Q138 1595 199.5 1598.0Q261 1601 309.5 1581.0Q358 1561 364 1518Q367 1471 357.0 1401.0Q347 1331 330 1288ZM352 383Q347 326 277.0 305.5Q207 285 135.5 303.0Q64 321 54 381Q53 399 55.0 468.0Q57 537 62 637Q71 844 77 1058Q83 1105 147.0 1119.0Q211 1133 274.0 1116.0Q337 1099 340 1052Q352 730 352 413Q352 398 352 383Z"/>
    <path transform="translate(7692, 0)" d="M920 572Q954 536 937.0 464.5Q920 393 877.5 341.0Q835 289 792 311Q755 339 704.0 355.0Q653 371 564.5 357.0Q476 343 327 279Q257 254 186.0 293.0Q115 332 82.5 393.0Q50 454 96 492Q135 523 243.5 659.5Q352 796 447.5 939.5Q543 1083 541 1134Q494 1139 436.5 1094.5Q379 1050 344 980Q324 942 274.0 941.0Q224 940 171.5 966.5Q119 993 90.0 1038.0Q61 1083 83 1136Q126 1217 265.0 1297.5Q404 1378 535 1408Q614 1420 693.5 1363.0Q773 1306 814.0 1214.0Q855 1122 819 1029Q774 933 689.5 802.0Q605 671 555 610Q626 629 741.0 624.5Q856 620 920 572Z"/>
    <path transform="translate(8696, 0)" d="M562 1433Q651 1409 697.0 1318.5Q743 1228 760.0 1099.0Q777 970 777 831Q778 656 771.5 503.0Q765 350 760 295Q752 246 682.5 231.5Q613 217 539.5 236.5Q466 256 447 308Q446 313 446.5 332.5Q447 352 448.5 374.5Q450 397 451 409Q219 419 134.5 503.5Q50 588 79.0 703.0Q108 818 218.0 920.0Q328 1022 484 1069Q495 1197 434.0 1193.0Q373 1189 300 1081Q272 1060 224.5 1073.5Q177 1087 141.5 1122.0Q106 1157 113 1202Q129 1263 203.5 1323.0Q278 1383 376.0 1417.0Q474 1451 562 1433ZM461 601Q465 668 467 716Q470 764 473 831Q394 784 368.0 731.0Q342 678 365.5 640.5Q389 603 461 601Z"/>
    <path transform="translate(9524, 0)" d="M667 1311Q709 1287 717.5 1232.5Q726 1178 709.0 1119.5Q692 1061 657.5 1025.0Q623 989 580 1002Q493 1029 447.5 963.0Q402 897 384.5 788.0Q367 679 365.5 577.0Q364 475 367 432Q367 425 367 421Q364 327 314 303Q270 283 210.0 282.0Q150 281 103.0 306.5Q56 332 51 393Q50 426 55.5 586.5Q61 747 69.0 953.5Q77 1160 85 1333Q94 1382 160.0 1398.0Q226 1414 290.0 1397.0Q354 1380 356 1331Q356 1306 355 1279Q354 1247 355 1218Q410 1281 506.0 1309.5Q602 1338 667 1311Z"/>
    <path transform="translate(10300, 0)" d="M841 1610Q829 1247 833.5 924.5Q838 602 885 245Q893 203 882.0 179.5Q871 156 820 137Q789 125 738.5 120.0Q688 115 642.5 125.5Q597 136 580 169Q566 210 561.5 284.0Q557 358 556 407Q556 428 555 435Q533 383 470.0 350.5Q407 318 330.0 321.0Q253 324 187 377Q100 459 75.0 614.0Q50 769 75.5 920.0Q101 1071 165 1139Q244 1211 353.0 1209.5Q462 1208 551 1160Q562 1301 569 1447Q575 1567 579 1607Q590 1663 653.5 1678.5Q717 1694 777.5 1675.5Q838 1657 841 1610ZM394 598Q423 587 453.0 641.0Q483 695 500.5 774.5Q518 854 511.0 921.0Q504 988 459 1003Q394 1018 365.0 965.0Q336 912 334.0 831.5Q332 751 349.0 682.5Q366 614 394 598Z"/>
    <path transform="translate(11243, 0)" d="M546 1413Q626 1392 665.5 1311.0Q705 1230 712.5 1129.5Q720 1029 703 949Q687 896 624.5 881.5Q562 867 508.5 889.5Q455 912 465 970Q494 1095 467.5 1128.5Q441 1162 400.5 1124.0Q360 1086 348 999Q345 936 388.5 886.5Q432 837 494 790Q549 748 597.0 699.0Q645 650 667.5 586.5Q690 523 667 436Q643 363 571.0 320.0Q499 277 408.5 265.0Q318 253 237 272Q141 299 119.0 356.5Q97 414 121.5 471.5Q146 529 189.0 555.0Q232 581 266 545Q299 509 332.5 508.0Q366 507 373.0 534.0Q380 561 334 608Q291 648 243 682Q178 728 127.0 782.5Q76 837 64 923Q50 1064 120.0 1185.5Q190 1307 306.0 1372.5Q422 1438 546 1413Z"/>
  </g>
</svg>