<svg width="40" height="40" viewBox="0 0 40 40" fill="none" xmlns="http://www.w3.org/2000/svg">
<rect width="40" height="40" rx="20" fill="#FD560E"/>
<path d="M11.7809 11.1627C12.1208 10.8184 12.5818 10.625 13.0625 10.625C13.5432 10.625 14.0042 10.8184 14.3441 11.1627C14.684 11.507 14.875 11.974 14.875 12.4609V21.6406C14.8784 22.7759 15.2287 23.8823 15.8778 24.8079C16.5268 25.7335 17.4428 26.4329 18.5 26.8101V12.4609C18.5 11.974 18.691 11.507 19.0309 11.1627C19.3708 10.8184 19.8318 10.625 20.3125 10.625C20.7932 10.625 21.2542 10.8184 21.5941 11.1627C21.934 11.507 22.125 11.974 22.125 12.4609V26.8101C23.1822 26.4329 24.0982 25.7335 24.7472 24.8079C25.3963 23.8823 25.7466 22.7759 25.75 21.6406V12.4609C25.75 11.974 25.941 11.507 26.2809 11.1627C26.6208 10.8184 27.0818 10.625 27.5625 10.625C28.0432 10.625 28.5042 10.8184 28.8441 11.1627C29.184 11.507 29.375 11.974 29.375 12.4609V21.6406C29.3721 23.7557 28.6495 25.8051 27.3289 27.4435C26.0082 29.0818 24.1703 30.2089 22.125 30.6347V40H20.3125H18.5V30.6347C16.4547 30.2089 14.6168 29.0818 13.2961 27.4435C11.9755 25.8051 11.2529 23.7557 11.25 21.6406V12.4609C11.25 11.974 11.441 11.507 11.7809 11.1627Z" fill="#08090A"/>
</svg>
